Coordinates
version=1
nRows=10
nColumns=22
inDegrees=yes

Units are S.I. units (second, meters, Newtons, ...)
If the header above contains a line with 'inDegrees', this indicates whether rotational values are in degrees (yes) or radians (no).

endheader
time	pelvis_tilt	pelvis_list	pelvis_rotation	pelvis_tx	pelvis_ty	pelvis_tz	hip_flexion_r	hip_adduction_r	hip_rotation_r	knee_angle_r	ankle_angle_r	subtalar_angle_r	hip_flexion_l	hip_adduction_l	hip_rotation_l	knee_angle_l	ankle_angle_l	subtalar_angle_l	lumbar_extension	lumbar_bending	lumbar_rotation
      1.83000000	     -4.05661895	      2.44488016	    -32.43769161	     -0.30770679	      0.86708020	     -0.02178959	    -12.38431170	      3.18350529	     -4.93116158	    -26.02327355	      1.66479922	      2.98240766	     43.40440307	      1.17822160	      5.17346890	    -75.39138158	      5.90029242	     -3.02256098	    -12.69648421	     -3.98065535	     14.75117681
      1.84000000	     -3.78584691	      3.05380047	    -32.09232029	     -0.28958459	      0.87325867	     -0.01080951	    -14.36921092	      2.54426199	     -4.24375315	    -23.60813434	     -2.65076975	      4.30659304	     43.32763679	      2.32793879	      4.69124951	    -71.44270362	      6.52342735	     -3.45840107	    -12.07727637	     -4.91432987	     15.29496925
      1.85000000	     -3.60315333	      3.58426678	    -31.73586611	     -0.27136812	      0.87896086	      0.00015262	    -16.03824876	      1.99544695	     -3.35329232	    -21.64952750	     -6.56350375	      5.45481447	     42.96975290	      3.38481806	      4.27837295	    -67.29165591	      6.94565874	     -3.68523434	    -11.45537966	     -5.67704730	     15.68121863
      1.86000000	     -3.51336897	      4.01738108	    -31.41284637	     -0.25316078	      0.88402380	      0.01112672	    -17.33465447	      1.53197788	     -2.23475715	    -20.26916603	     -9.82023195	      6.31827603	     42.35402665	      4.29822820	      3.90885492	    -63.04426904	      7.13520588	     -3.68475382	    -10.83452011	     -6.25058657	     15.95445407
      1.87000000	     -3.50683281	      4.36029481	    -31.16701212	     -0.23503529	      0.88830749	      0.02211730	    -18.17976682	      1.11328534	     -0.96347642	    -19.61156610	    -12.27426284	      6.88741520	     41.51180799	      5.04932346	      3.53372061	    -58.81132448	      7.07650836	     -3.49563078	    -10.20957590	     -6.64642278	     16.15999700
      1.88000000	     -3.57102616	      4.60446136	    -31.04792681	     -0.21704212	      0.89170794	      0.03320467	    -18.56099318	      0.73241443	      0.39312922	    -19.71378156	    -13.83109904	      7.08120543	     40.47505293	      5.59434345	      3.08048397	    -54.72756570	      6.76353782	     -3.23409503	     -9.57965756	     -6.87697925	     16.37793435
      1.89000000	     -3.66348476	      4.77764284	    -31.05231359	     -0.19919031	      0.89416166	      0.04431797	    -18.43764755	      0.33474030	      1.58301793	    -20.67159537	    -14.57591551	      7.10310145	     39.26863252	      5.98360681	      2.50355497	    -50.90381977	      6.26039932	     -2.93060092	     -8.97630013	     -6.98466144	     16.52210931
      1.90000000	     -3.74037428	      4.86773392	    -31.17440123	     -0.18143397	      0.89567544	      0.05542385	    -17.89615531	     -0.09547919	      2.44457278	    -22.38402959	    -14.68262850	      6.91829466	     37.88827254	      6.25262753	      1.82003318	    -47.45009482	      5.65904033	     -2.60451633	     -8.44357127	     -6.98509980	     16.65766257
      1.91000000	     -3.77246918	      4.89160218	    -31.40847993	     -0.16379909	      0.89623848	      0.06648926	    -16.97016926	     -0.60233647	      2.87884970	    -24.79553646	    -14.30098230	      6.39449034	     36.37612387	      6.41238429	      0.95160353	    -44.47442961	      5.05717110	     -2.36045716	     -8.00889395	     -6.91437151	     16.70047176
      1.92000000	     -3.75974443	      4.88133171	    -31.71449858	     -0.14627649	      0.89582965	      0.07739783	    -15.70313019	     -1.22164140	      2.90245070	    -27.77647192	    -13.51944281	      5.71452982	     34.78246363	      6.54389228	     -0.00544395	    -42.02492795	      4.60074740	     -2.44141191	     -7.65944470	     -6.80778090	     16.65805471
